# This file uses centimeters as units for non-parametric coordinates.

g default
v -1.121031 1.489972 -10.217949
v -1.487057 1.855998 -10.217949
v -1.987057 1.989972 -10.217949
v -2.487057 1.855998 -10.217949
v -2.853082 1.489972 -10.217949
v -2.987057 0.989972 -10.217949
v -2.853082 0.489972 -10.217949
v -2.487057 0.123947 -10.217949
v -1.987057 -0.010028 -10.217949
v -1.487057 0.123947 -10.217949
v -1.121031 0.489972 -10.217949
v -0.987057 0.989972 -10.217949
v -1.121031 1.489972 -8.217949
v -1.487057 1.855998 -8.217949
v -1.987057 1.989972 -8.217949
v -2.487057 1.855998 -8.217949
v -2.853082 1.489972 -8.217949
v -2.987057 0.989972 -8.217949
v -2.853082 0.489972 -8.217949
v -2.487057 0.123947 -8.217949
v -1.987057 -0.010028 -8.217949
v -1.487057 0.123947 -8.217949
v -1.121031 0.489972 -8.217949
v -0.987057 0.989972 -8.217949
v -1.987057 0.989972 -10.217949
v -1.987057 0.989972 -8.217949
v -0.093636 3.196194 -10.217949
v -0.459661 3.562219 -10.217949
v -0.959661 3.696194 -10.217949
v -1.459661 3.562219 -10.217949
v -1.825687 3.196194 -10.217949
v -1.959661 2.696194 -10.217949
v -1.825687 2.196194 -10.217949
v -1.459661 1.830168 -10.217949
v -0.959661 1.696194 -10.217949
v -0.459661 1.830168 -10.217949
v -0.093636 2.196194 -10.217949
v 0.040339 2.696194 -10.217949
v -0.093636 3.196194 -8.217949
v -0.459661 3.562219 -8.217949
v -0.959661 3.696194 -8.217949
v -1.459661 3.562219 -8.217949
v -1.825687 3.196194 -8.217949
v -1.959661 2.696194 -8.217949
v -1.825687 2.196194 -8.217949
v -1.459661 1.830168 -8.217949
v -0.959661 1.696194 -8.217949
v -0.459661 1.830168 -8.217949
v -0.093636 2.196194 -8.217949
v 0.040339 2.696194 -8.217949
v -0.959661 2.696194 -10.217949
v -0.959661 2.696194 -8.217949
v 0.926971 1.489972 -10.217949
v 0.560945 1.855998 -10.217949
v 0.060945 1.989972 -10.217949
v -0.439055 1.855998 -10.217949
v -0.805080 1.489972 -10.217949
v -0.939055 0.989972 -10.217949
v -0.805080 0.489972 -10.217949
v -0.439055 0.123947 -10.217949
v 0.060945 -0.010028 -10.217949
v 0.560945 0.123947 -10.217949
v 0.926971 0.489972 -10.217949
v 1.060945 0.989972 -10.217949
v 0.926971 1.489972 -8.217949
v 0.560945 1.855998 -8.217949
v 0.060945 1.989972 -8.217949
v -0.439055 1.855998 -8.217949
v -0.805080 1.489972 -8.217949
v -0.939055 0.989972 -8.217949
v -0.805080 0.489972 -8.217949
v -0.439055 0.123947 -8.217949
v 0.060945 -0.010028 -8.217949
v 0.560945 0.123947 -8.217949
v 0.926971 0.489972 -8.217949
v 1.060945 0.989972 -8.217949
v 0.060945 0.989972 -10.217949
v 0.060945 0.989972 -8.217949
vt 0.635316 0.078125
vt 0.578125 0.020934
vt 0.500000 0.000000
vt 0.421875 0.020934
vt 0.364684 0.078125
vt 0.343750 0.156250
vt 0.364684 0.234375
vt 0.421875 0.291566
vt 0.500000 0.312500
vt 0.578125 0.291566
vt 0.635316 0.234375
vt 0.656250 0.156250
vt 0.375000 0.312500
vt 0.395833 0.312500
vt 0.416667 0.312500
vt 0.437500 0.312500
vt 0.458333 0.312500
vt 0.479167 0.312500
vt 0.500000 0.312500
vt 0.520833 0.312500
vt 0.541667 0.312500
vt 0.562500 0.312500
vt 0.583333 0.312500
vt 0.604167 0.312500
vt 0.625000 0.312500
vt 0.375000 0.688440
vt 0.395833 0.688440
vt 0.416667 0.688440
vt 0.437500 0.688440
vt 0.458333 0.688440
vt 0.479167 0.688440
vt 0.500000 0.688440
vt 0.520833 0.688440
vt 0.541667 0.688440
vt 0.562500 0.688440
vt 0.583333 0.688440
vt 0.604167 0.688440
vt 0.625000 0.688440
vt 0.635316 0.765625
vt 0.578125 0.708434
vt 0.500000 0.687500
vt 0.421875 0.708434
vt 0.364684 0.765625
vt 0.343750 0.843750
vt 0.364684 0.921875
vt 0.421875 0.979066
vt 0.500000 1.000000
vt 0.578125 0.979066
vt 0.635316 0.921875
vt 0.656250 0.843750
vt 0.500000 0.150000
vt 0.500000 0.837500
vt 0.375000 0.312500
vt 0.395833 0.312500
vt 0.395833 0.688440
vt 0.375000 0.688440
vt 0.416667 0.312500
vt 0.416667 0.688440
vt 0.437500 0.312500
vt 0.437500 0.688440
vt 0.458333 0.312500
vt 0.458333 0.688440
vt 0.479167 0.312500
vt 0.479167 0.688440
vt 0.500000 0.312500
vt 0.500000 0.688440
vt 0.520833 0.312500
vt 0.520833 0.688440
vt 0.541667 0.312500
vt 0.541667 0.688440
vt 0.562500 0.312500
vt 0.562500 0.688440
vt 0.583333 0.312500
vt 0.583333 0.688440
vt 0.604167 0.312500
vt 0.604167 0.688440
vt 0.625000 0.312500
vt 0.625000 0.688440
vt 0.578125 0.020934
vt 0.635316 0.078125
vt 0.500000 0.150000
vt 0.500000 0.000000
vt 0.421875 0.020934
vt 0.364684 0.078125
vt 0.343750 0.156250
vt 0.364684 0.234375
vt 0.421875 0.291566
vt 0.500000 0.312500
vt 0.578125 0.291566
vt 0.635316 0.234375
vt 0.656250 0.156250
vt 0.635316 0.921875
vt 0.578125 0.979066
vt 0.500000 0.837500
vt 0.500000 1.000000
vt 0.421875 0.979066
vt 0.364684 0.921875
vt 0.343750 0.843750
vt 0.364684 0.765625
vt 0.421875 0.708434
vt 0.500000 0.687500
vt 0.578125 0.708434
vt 0.635316 0.765625
vt 0.656250 0.843750
vt 0.375000 0.312500
vt 0.395833 0.312500
vt 0.395833 0.688440
vt 0.375000 0.688440
vt 0.416667 0.312500
vt 0.416667 0.688440
vt 0.437500 0.312500
vt 0.437500 0.688440
vt 0.458333 0.312500
vt 0.458333 0.688440
vt 0.479167 0.312500
vt 0.479167 0.688440
vt 0.500000 0.312500
vt 0.500000 0.688440
vt 0.520833 0.312500
vt 0.520833 0.688440
vt 0.541667 0.312500
vt 0.541667 0.688440
vt 0.562500 0.312500
vt 0.562500 0.688440
vt 0.583333 0.312500
vt 0.583333 0.688440
vt 0.604167 0.312500
vt 0.604167 0.688440
vt 0.625000 0.312500
vt 0.625000 0.688440
vt 0.578125 0.020934
vt 0.635316 0.078125
vt 0.500000 0.150000
vt 0.500000 0.000000
vt 0.421875 0.020934
vt 0.364684 0.078125
vt 0.343750 0.156250
vt 0.364684 0.234375
vt 0.421875 0.291566
vt 0.500000 0.312500
vt 0.578125 0.291566
vt 0.635316 0.234375
vt 0.656250 0.156250
vt 0.635316 0.921875
vt 0.578125 0.979066
vt 0.500000 0.837500
vt 0.500000 1.000000
vt 0.421875 0.979066
vt 0.364684 0.921875
vt 0.343750 0.843750
vt 0.364684 0.765625
vt 0.421875 0.708434
vt 0.500000 0.687500
vt 0.578125 0.708434
vt 0.635316 0.765625
vt 0.656250 0.843750
vn 0.707107 0.707107 0.000000
vn 0.707107 0.707107 0.000000
vn 0.707107 0.707107 0.000000
vn 0.707107 0.707107 0.000000
vn 0.258819 0.965926 0.000000
vn 0.258819 0.965926 0.000000
vn 0.258819 0.965926 0.000000
vn 0.258819 0.965926 0.000000
vn -0.258819 0.965926 0.000000
vn -0.258819 0.965926 0.000000
vn -0.258819 0.965926 0.000000
vn -0.258819 0.965926 0.000000
vn -0.707107 0.707107 0.000000
vn -0.707107 0.707107 0.000000
vn -0.707107 0.707107 0.000000
vn -0.707107 0.707107 0.000000
vn -0.965926 0.258819 0.000000
vn -0.965926 0.258819 0.000000
vn -0.965926 0.258819 0.000000
vn -0.965926 0.258819 0.000000
vn -0.965926 -0.258819 0.000000
vn -0.965926 -0.258819 0.000000
vn -0.965926 -0.258819 0.000000
vn -0.965926 -0.258819 0.000000
vn -0.707107 -0.707107 0.000000
vn -0.707107 -0.707107 0.000000
vn -0.707107 -0.707107 0.000000
vn -0.707107 -0.707107 0.000000
vn -0.258819 -0.965926 0.000000
vn -0.258819 -0.965926 0.000000
vn -0.258819 -0.965926 0.000000
vn -0.258819 -0.965926 0.000000
vn 0.258819 -0.965926 0.000000
vn 0.258819 -0.965926 0.000000
vn 0.258819 -0.965926 0.000000
vn 0.258819 -0.965926 0.000000
vn 0.707107 -0.707107 0.000000
vn 0.707107 -0.707107 0.000000
vn 0.707107 -0.707107 0.000000
vn 0.707107 -0.707107 0.000000
vn 0.965926 -0.258819 0.000000
vn 0.965926 -0.258819 0.000000
vn 0.965926 -0.258819 0.000000
vn 0.965926 -0.258819 0.000000
vn 0.965926 0.258819 0.000000
vn 0.965926 0.258819 0.000000
vn 0.965926 0.258819 0.000000
vn 0.965926 0.258819 0.000000
vn 0.000000 0.000000 -1.000000
vn 0.000000 0.000000 -1.000000
vn 0.000000 0.000000 -1.000000
vn 0.000000 0.000000 -1.000000
vn 0.000000 0.000000 -1.000000
vn 0.000000 0.000000 -1.000000
vn 0.000000 0.000000 -1.000000
vn 0.000000 0.000000 -1.000000
vn 0.000000 0.000000 -1.000000
vn 0.000000 0.000000 -1.000000
vn 0.000000 0.000000 -1.000000
vn 0.000000 0.000000 -1.000000
vn 0.000000 0.000000 -1.000000
vn 0.000000 0.000000 1.000000
vn 0.000000 0.000000 1.000000
vn 0.000000 0.000000 1.000000
vn 0.000000 0.000000 1.000000
vn 0.000000 0.000000 1.000000
vn 0.000000 0.000000 1.000000
vn 0.000000 0.000000 1.000000
vn 0.000000 0.000000 1.000000
vn 0.000000 0.000000 1.000000
vn 0.000000 0.000000 1.000000
vn 0.000000 0.000000 1.000000
vn 0.000000 0.000000 1.000000
vn 0.000000 0.000000 1.000000
vn 0.707107 0.707107 0.000000
vn 0.707107 0.707107 0.000000
vn 0.707107 0.707107 0.000000
vn 0.707107 0.707107 0.000000
vn 0.258819 0.965926 0.000000
vn 0.258819 0.965926 0.000000
vn 0.258819 0.965926 0.000000
vn 0.258819 0.965926 0.000000
vn -0.258819 0.965926 0.000000
vn -0.258819 0.965926 0.000000
vn -0.258819 0.965926 0.000000
vn -0.258819 0.965926 0.000000
vn -0.707107 0.707107 0.000000
vn -0.707107 0.707107 0.000000
vn -0.707107 0.707107 0.000000
vn -0.707107 0.707107 0.000000
vn -0.965926 0.258819 0.000000
vn -0.965926 0.258819 0.000000
vn -0.965926 0.258819 0.000000
vn -0.965926 0.258819 0.000000
vn -0.965926 -0.258819 0.000000
vn -0.965926 -0.258819 0.000000
vn -0.965926 -0.258819 0.000000
vn -0.965926 -0.258819 0.000000
vn -0.707107 -0.707107 0.000000
vn -0.707107 -0.707107 0.000000
vn -0.707107 -0.707107 0.000000
vn -0.707107 -0.707107 0.000000
vn -0.258819 -0.965926 0.000000
vn -0.258819 -0.965926 0.000000
vn -0.258819 -0.965926 0.000000
vn -0.258819 -0.965926 0.000000
vn 0.258819 -0.965926 0.000000
vn 0.258819 -0.965926 0.000000
vn 0.258819 -0.965926 0.000000
vn 0.258819 -0.965926 0.000000
vn 0.707107 -0.707107 0.000000
vn 0.707107 -0.707107 0.000000
vn 0.707107 -0.707107 0.000000
vn 0.707107 -0.707107 0.000000
vn 0.965926 -0.258819 0.000000
vn 0.965926 -0.258819 0.000000
vn 0.965926 -0.258819 0.000000
vn 0.965926 -0.258819 0.000000
vn 0.965926 0.258819 0.000000
vn 0.965926 0.258819 0.000000
vn 0.965926 0.258819 0.000000
vn 0.965926 0.258819 0.000000
vn 0.000000 0.000000 -1.000000
vn 0.000000 0.000000 -1.000000
vn 0.000000 0.000000 -1.000000
vn 0.000000 0.000000 -1.000000
vn 0.000000 0.000000 -1.000000
vn 0.000000 0.000000 -1.000000
vn 0.000000 0.000000 -1.000000
vn 0.000000 0.000000 -1.000000
vn 0.000000 0.000000 -1.000000
vn 0.000000 0.000000 -1.000000
vn 0.000000 0.000000 -1.000000
vn 0.000000 0.000000 -1.000000
vn 0.000000 0.000000 -1.000000
vn 0.000000 0.000000 1.000000
vn 0.000000 0.000000 1.000000
vn 0.000000 0.000000 1.000000
vn 0.000000 0.000000 1.000000
vn 0.000000 0.000000 1.000000
vn 0.000000 0.000000 1.000000
vn 0.000000 0.000000 1.000000
vn 0.000000 0.000000 1.000000
vn 0.000000 0.000000 1.000000
vn 0.000000 0.000000 1.000000
vn 0.000000 0.000000 1.000000
vn 0.000000 0.000000 1.000000
vn 0.000000 0.000000 1.000000
vn 0.707107 0.707107 0.000000
vn 0.707107 0.707107 0.000000
vn 0.707107 0.707107 0.000000
vn 0.707107 0.707107 0.000000
vn 0.258819 0.965926 0.000000
vn 0.258819 0.965926 0.000000
vn 0.258819 0.965926 0.000000
vn 0.258819 0.965926 0.000000
vn -0.258819 0.965926 0.000000
vn -0.258819 0.965926 0.000000
vn -0.258819 0.965926 0.000000
vn -0.258819 0.965926 0.000000
vn -0.707107 0.707107 0.000000
vn -0.707107 0.707107 0.000000
vn -0.707107 0.707107 0.000000
vn -0.707107 0.707107 0.000000
vn -0.965926 0.258819 0.000000
vn -0.965926 0.258819 0.000000
vn -0.965926 0.258819 0.000000
vn -0.965926 0.258819 0.000000
vn -0.965926 -0.258819 0.000000
vn -0.965926 -0.258819 0.000000
vn -0.965926 -0.258819 0.000000
vn -0.965926 -0.258819 0.000000
vn -0.707107 -0.707107 0.000000
vn -0.707107 -0.707107 0.000000
vn -0.707107 -0.707107 0.000000
vn -0.707107 -0.707107 0.000000
vn -0.258819 -0.965926 0.000000
vn -0.258819 -0.965926 0.000000
vn -0.258819 -0.965926 0.000000
vn -0.258819 -0.965926 0.000000
vn 0.258819 -0.965926 0.000000
vn 0.258819 -0.965926 0.000000
vn 0.258819 -0.965926 0.000000
vn 0.258819 -0.965926 0.000000
vn 0.707107 -0.707107 0.000000
vn 0.707107 -0.707107 0.000000
vn 0.707107 -0.707107 0.000000
vn 0.707107 -0.707107 0.000000
vn 0.965926 -0.258819 0.000000
vn 0.965926 -0.258819 0.000000
vn 0.965926 -0.258819 0.000000
vn 0.965926 -0.258819 0.000000
vn 0.965926 0.258819 0.000000
vn 0.965926 0.258819 0.000000
vn 0.965926 0.258819 0.000000
vn 0.965926 0.258819 0.000000
vn 0.000000 0.000000 -1.000000
vn 0.000000 0.000000 -1.000000
vn 0.000000 0.000000 -1.000000
vn 0.000000 0.000000 -1.000000
vn 0.000000 0.000000 -1.000000
vn 0.000000 0.000000 -1.000000
vn 0.000000 0.000000 -1.000000
vn 0.000000 0.000000 -1.000000
vn 0.000000 0.000000 -1.000000
vn 0.000000 0.000000 -1.000000
vn 0.000000 0.000000 -1.000000
vn 0.000000 0.000000 -1.000000
vn 0.000000 0.000000 -1.000000
vn 0.000000 0.000000 1.000000
vn 0.000000 0.000000 1.000000
vn 0.000000 0.000000 1.000000
vn 0.000000 0.000000 1.000000
vn 0.000000 0.000000 1.000000
vn 0.000000 0.000000 1.000000
vn 0.000000 0.000000 1.000000
vn 0.000000 0.000000 1.000000
vn 0.000000 0.000000 1.000000
vn 0.000000 0.000000 1.000000
vn 0.000000 0.000000 1.000000
vn 0.000000 0.000000 1.000000
vn 0.000000 0.000000 1.000000
s off
g BotteDeFoin
f 1/13/1 2/14/2 14/27/3 13/26/4
f 2/14/5 3/15/6 15/28/7 14/27/8
f 3/15/9 4/16/10 16/29/11 15/28/12
f 4/16/13 5/17/14 17/30/15 16/29/16
f 5/17/17 6/18/18 18/31/19 17/30/20
f 6/18/21 7/19/22 19/32/23 18/31/24
f 7/19/25 8/20/26 20/33/27 19/32/28
f 8/20/29 9/21/30 21/34/31 20/33/32
f 9/21/33 10/22/34 22/35/35 21/34/36
f 10/22/37 11/23/38 23/36/39 22/35/40
f 11/23/41 12/24/42 24/37/43 23/36/44
f 12/24/45 1/25/46 13/38/47 24/37/48
s 1
f 2/2/49 1/1/50 25/51/51
f 3/3/52 2/2/49 25/51/51
f 4/4/53 3/3/52 25/51/51
f 5/5/54 4/4/53 25/51/51
f 6/6/55 5/5/54 25/51/51
f 7/7/56 6/6/55 25/51/51
f 8/8/57 7/7/56 25/51/51
f 9/9/58 8/8/57 25/51/51
f 10/10/59 9/9/58 25/51/51
f 11/11/60 10/10/59 25/51/51
f 12/12/61 11/11/60 25/51/51
f 1/1/50 12/12/61 25/51/51
s 2
f 13/49/62 14/48/63 26/52/64
f 14/48/63 15/47/65 26/52/64
f 15/47/65 16/46/66 26/52/64
f 16/46/66 17/45/67 26/52/64
f 17/45/67 18/44/68 26/52/64
f 18/44/68 19/43/69 26/52/64
f 19/43/69 20/42/70 26/52/64
f 20/42/70 21/41/71 26/52/64
f 21/41/71 22/40/72 26/52/64
f 22/40/72 23/39/73 26/52/64
f 23/39/73 24/50/74 26/52/64
f 24/50/74 13/49/62 26/52/64
s off
f 27/53/75 28/54/76 40/55/77 39/56/78
f 28/54/79 29/57/80 41/58/81 40/55/82
f 29/57/83 30/59/84 42/60/85 41/58/86
f 30/59/87 31/61/88 43/62/89 42/60/90
f 31/61/91 32/63/92 44/64/93 43/62/94
f 32/63/95 33/65/96 45/66/97 44/64/98
f 33/65/99 34/67/100 46/68/101 45/66/102
f 34/67/103 35/69/104 47/70/105 46/68/106
f 35/69/107 36/71/108 48/72/109 47/70/110
f 36/71/111 37/73/112 49/74/113 48/72/114
f 37/73/115 38/75/116 50/76/117 49/74/118
f 38/75/119 27/77/120 39/78/121 50/76/122
s 3
f 28/79/123 27/80/124 51/81/125
f 29/82/126 28/79/123 51/81/125
f 30/83/127 29/82/126 51/81/125
f 31/84/128 30/83/127 51/81/125
f 32/85/129 31/84/128 51/81/125
f 33/86/130 32/85/129 51/81/125
f 34/87/131 33/86/130 51/81/125
f 35/88/132 34/87/131 51/81/125
f 36/89/133 35/88/132 51/81/125
f 37/90/134 36/89/133 51/81/125
f 38/91/135 37/90/134 51/81/125
f 27/80/124 38/91/135 51/81/125
s 4
f 39/92/136 40/93/137 52/94/138
f 40/93/137 41/95/139 52/94/138
f 41/95/139 42/96/140 52/94/138
f 42/96/140 43/97/141 52/94/138
f 43/97/141 44/98/142 52/94/138
f 44/98/142 45/99/143 52/94/138
f 45/99/143 46/100/144 52/94/138
f 46/100/144 47/101/145 52/94/138
f 47/101/145 48/102/146 52/94/138
f 48/102/146 49/103/147 52/94/138
f 49/103/147 50/104/148 52/94/138
f 50/104/148 39/92/136 52/94/138
s off
f 53/105/149 54/106/150 66/107/151 65/108/152
f 54/106/153 55/109/154 67/110/155 66/107/156
f 55/109/157 56/111/158 68/112/159 67/110/160
f 56/111/161 57/113/162 69/114/163 68/112/164
f 57/113/165 58/115/166 70/116/167 69/114/168
f 58/115/169 59/117/170 71/118/171 70/116/172
f 59/117/173 60/119/174 72/120/175 71/118/176
f 60/119/177 61/121/178 73/122/179 72/120/180
f 61/121/181 62/123/182 74/124/183 73/122/184
f 62/123/185 63/125/186 75/126/187 74/124/188
f 63/125/189 64/127/190 76/128/191 75/126/192
f 64/127/193 53/129/194 65/130/195 76/128/196
s 5
f 54/131/197 53/132/198 77/133/199
f 55/134/200 54/131/197 77/133/199
f 56/135/201 55/134/200 77/133/199
f 57/136/202 56/135/201 77/133/199
f 58/137/203 57/136/202 77/133/199
f 59/138/204 58/137/203 77/133/199
f 60/139/205 59/138/204 77/133/199
f 61/140/206 60/139/205 77/133/199
f 62/141/207 61/140/206 77/133/199
f 63/142/208 62/141/207 77/133/199
f 64/143/209 63/142/208 77/133/199
f 53/132/198 64/143/209 77/133/199
s 6
f 65/144/210 66/145/211 78/146/212
f 66/145/211 67/147/213 78/146/212
f 67/147/213 68/148/214 78/146/212
f 68/148/214 69/149/215 78/146/212
f 69/149/215 70/150/216 78/146/212
f 70/150/216 71/151/217 78/146/212
f 71/151/217 72/152/218 78/146/212
f 72/152/218 73/153/219 78/146/212
f 73/153/219 74/154/220 78/146/212
f 74/154/220 75/155/221 78/146/212
f 75/155/221 76/156/222 78/146/212
f 76/156/222 65/144/210 78/146/212
