# This file uses centimeters as units for non-parametric coordinates.

g default
v -7.760306 -0.088210 -0.880116
v -1.648858 -0.088210 -0.880116
v -7.760306 0.088210 -0.880116
v -1.648858 0.088210 -0.880116
v -7.760306 0.088210 -8.070237
v -1.648858 0.088210 -8.070237
v -7.760306 -0.088210 -8.070237
v -1.648858 -0.088210 -8.070237
v -4.722226 -0.088210 -0.880116
v -4.722226 -0.088210 -8.070237
v -4.722226 -0.038924 -8.070237
v -4.722226 -0.038924 -0.880116
v -7.760306 0.088210 -4.398055
v -4.722226 -0.038924 -4.398055
v -1.648858 0.088210 -4.398055
v -1.648858 -0.088210 -4.398055
v -4.722226 -0.088210 -4.398055
v -7.760306 -0.088210 -4.398055
v -6.241266 0.088210 -0.880116
v -3.185542 0.088210 -0.880116
v -3.185542 0.088210 -4.398055
v -3.185542 0.088210 -8.070237
v -6.241266 0.088210 -8.070237
v -6.241266 0.088210 -4.398055
vt 0.375000 0.000000
vt 0.625000 0.000000
vt 0.375000 0.250000
vt 0.625000 0.250000
vt 0.375000 0.500000
vt 0.625000 0.500000
vt 0.375000 0.750000
vt 0.625000 0.750000
vt 0.375000 1.000000
vt 0.625000 1.000000
vt 0.875000 0.000000
vt 0.875000 0.250000
vt 0.125000 0.000000
vt 0.125000 0.250000
vt 0.499278 0.000000
vt 0.499278 1.000000
vt 0.499278 0.750000
vt 0.499278 0.500000
vt 0.499278 0.250000
vt 0.252681 0.250000
vt 0.375000 0.372319
vt 0.499278 0.372319
vt 0.625000 0.372319
vt 0.747319 0.250000
vt 0.625000 0.877681
vt 0.747319 0.000000
vt 0.499278 0.877681
vt 0.252681 0.000000
vt 0.375000 0.877681
vt 0.437139 0.250000
vt 0.562139 0.250000
vt 0.562139 0.372319
vt 0.562139 0.500000
vt 0.437139 0.500000
vt 0.437139 0.372319
vn 0.000000 0.000000 1.000000
vn 0.000000 0.000000 1.000000
vn 0.000000 0.000000 1.000000
vn 0.000000 0.000000 1.000000
vn 0.000000 0.000000 1.000000
vn -0.000000 1.000000 0.000000
vn -0.000000 1.000000 0.000000
vn -0.041331 0.999146 0.000000
vn -0.041331 0.999146 0.000000
vn 0.000000 0.000000 -1.000000
vn 0.000000 0.000000 -1.000000
vn 0.000000 0.000000 -1.000000
vn 0.000000 0.000000 -1.000000
vn 0.000000 0.000000 -1.000000
vn 0.000000 -1.000000 0.000000
vn 0.000000 -1.000000 0.000000
vn 0.000000 -1.000000 0.000000
vn 0.000000 -1.000000 0.000000
vn 1.000000 0.000000 0.000000
vn 1.000000 0.000000 0.000000
vn 1.000000 0.000000 0.000000
vn 1.000000 0.000000 0.000000
vn -1.000000 0.000000 0.000000
vn -1.000000 0.000000 0.000000
vn -1.000000 0.000000 0.000000
vn -1.000000 0.000000 0.000000
vn 0.000000 -1.000000 0.000000
vn 0.000000 -1.000000 0.000000
vn 0.000000 0.000000 -1.000000
vn 0.000000 0.000000 -1.000000
vn 0.000000 0.000000 -1.000000
vn 0.041810 0.999126 0.000000
vn 0.041810 0.999126 0.000000
vn 0.000000 0.000000 1.000000
vn 0.000000 0.000000 1.000000
vn 0.000000 0.000000 1.000000
vn 0.041810 0.999126 0.000000
vn 0.000000 1.000000 0.000000
vn -0.041331 0.999146 0.000000
vn 1.000000 0.000000 0.000000
vn 1.000000 0.000000 0.000000
vn 0.000000 -1.000000 0.000000
vn 0.000000 -1.000000 0.000000
vn 0.000000 -1.000000 0.000000
vn -1.000000 0.000000 0.000000
vn -1.000000 0.000000 0.000000
vn 0.000000 1.000000 0.000000
vn 0.000000 1.000000 0.000000
vn 0.000000 1.000000 0.000000
vn 0.000000 1.000000 0.000000
vn 0.000000 1.000000 0.000000
vn 0.000000 1.000000 0.000000
s 1
g Champs
f 12/19/1 9/15/2 2/2/3 4/4/4 20/31/5
s 2
f 11/18/6 14/22/7 21/32/8 22/33/9
s 3
f 10/17/10 11/18/11 22/33/12 6/6/13 8/8/14
s 4
f 16/25/15 17/27/16 10/17/17 8/8/18
s 5
f 15/24/19 16/26/20 8/11/21 6/12/22
s 6
f 7/13/23 18/28/24 13/20/25 5/14/26
s 4
f 7/7/27 10/17/17 17/27/16 18/29/28
s 3
f 5/5/29 23/34/30 11/18/11 10/17/10 7/7/31
s 2
f 23/34/32 24/35/33 14/22/7 11/18/6
s 1
f 1/1/34 9/15/2 12/19/1 19/30/35 3/3/36
s 2
f 24/35/33 19/30/37 12/19/38 14/22/7
f 20/31/39 21/32/8 14/22/7 12/19/38
s 5
f 2/2/40 16/26/20 15/24/19 4/4/41
s 4
f 9/16/42 17/27/16 16/25/15 2/10/43
f 18/29/28 17/27/16 9/16/42 1/9/44
s 6
f 13/20/25 18/28/24 1/1/45 3/3/46
s 2
f 15/23/47 21/32/8 20/31/39 4/4/48
f 22/33/9 21/32/8 15/23/47 6/6/49
f 13/21/50 24/35/33 23/34/32 5/5/51
f 3/3/52 19/30/37 24/35/33 13/21/50
