# This file uses centimeters as units for non-parametric coordinates.

g default
v -11.966696 -0.112310 -1.573943
v -10.966696 -0.112310 -1.573943
v -11.966696 1.694729 -1.573943
v -10.966696 1.694729 -1.573943
v -11.966696 1.694729 -1.729244
v -10.966696 1.694729 -1.729244
v -11.966696 -0.112310 -1.729244
v -10.966696 -0.112310 -1.729244
vt 0.559123 0.001992
vt 0.644723 0.001992
vt 0.644723 0.998008
vt 0.559123 0.998008
vt 0.650482 0.001992
vt 0.736082 0.001992
vt 0.736082 0.998008
vt 0.650482 0.998008
vt 0.741841 0.553179
vt 0.741841 0.001992
vt 0.827441 0.001992
vt 0.827441 0.553179
vt 0.001652 0.001992
vt 0.552838 0.001992
vt 0.552838 0.998007
vt 0.001652 0.998007
vn 0.000000 1.000000 0.000000
vn 0.000000 1.000000 0.000000
vn 0.000000 1.000000 0.000000
vn 0.000000 1.000000 0.000000
vn 0.000000 0.000000 -1.000000
vn 0.000000 0.000000 -1.000000
vn 0.000000 0.000000 -1.000000
vn 0.000000 0.000000 -1.000000
vn 1.000000 0.000000 0.000000
vn 1.000000 0.000000 0.000000
vn 1.000000 0.000000 0.000000
vn 1.000000 0.000000 0.000000
vn -1.000000 0.000000 0.000000
vn -1.000000 0.000000 0.000000
vn -1.000000 0.000000 0.000000
vn -1.000000 0.000000 0.000000
s off
g Door Houses
f 3/9/1 4/10/2 6/11/3 5/12/4
f 5/13/5 6/14/6 8/15/7 7/16/8
f 2/1/9 8/2/10 6/3/11 4/4/12
f 7/5/13 1/6/14 3/7/15 5/8/16
