# This file uses centimeters as units for non-parametric coordinates.

g default
v -12.514006 4.986434 2.515860
v -7.482285 4.986434 2.515860
v -12.514006 6.696785 0.548537
v -7.482285 6.696785 0.548537
v -12.514006 4.986434 -1.418788
v -7.482285 4.986434 -1.418788
vt 0.504783 0.498155
vt 0.504783 0.001992
vt 0.720459 0.250074
vt 0.707086 0.998008
vt 0.707086 0.501845
vt 0.922763 0.749926
vt 0.001842 0.636496
vt 0.001842 0.001992
vt 0.249923 0.001992
vt 0.249923 0.636496
vt 0.498004 0.001992
vt 0.498004 0.636496
vn 0.000000 0.754675 0.656099
vn 0.000000 0.754675 0.656099
vn 0.000000 0.754675 0.656099
vn 0.000000 0.754675 0.656099
vn 0.000000 0.754675 -0.656099
vn 0.000000 0.754675 -0.656099
vn 0.000000 0.754675 -0.656099
vn 0.000000 0.754675 -0.656099
vn 1.000000 0.000000 0.000000
vn 1.000000 0.000000 0.000000
vn 1.000000 0.000000 0.000000
vn -1.000000 0.000000 0.000000
vn -1.000000 0.000000 0.000000
vn -1.000000 0.000000 0.000000
s off
g roof Houses
f 1/7/1 2/8/2 4/9/3 3/10/4
f 3/10/5 4/9/6 6/11/7 5/12/8
f 2/1/9 6/2/10 4/3/11
f 5/4/12 1/5/13 3/6/14
